<svg id="Layer_1" data-name="Layer 1" xmlns="http://www.w3.org/2000/svg" viewBox="0 0 1990.82 372.3"><defs><style>.cls-1{fill:#fff;}.cls-2{fill:#be1622;}</style></defs><path class="cls-1" d="M546.12,120.9l-14.3,28.22S516.4,138.4,500.4,138.4c-12,0-18.43,5.45-18.43,13.92,0,8.65,14.67,14.86,32.36,22.39,17.3,7.33,36.31,22,36.31,42.33,0,37.06-28.22,50-58.51,50-36.32,0-58.33-20.5-58.33-20.5l17.69-29.73s20.69,17.5,38,17.5c7.72,0,22.39-.76,22.39-15.24,0-11.29-16.56-16.37-35-25.59-18.63-9.22-29.54-23.71-29.54-39.89,0-29,25.58-47.41,50.61-47.41A88.21,88.21,0,0,1,546.12,120.9Z"/><path class="cls-1" d="M692.87,233.22H746.3v31H657.5V109h35.37Z"/><path class="cls-1" d="M910.35,106.22c43.08,0,78.08,35,78.08,80.34s-33.49,80.52-78.08,80.52c-45.91,0-78.27-35.18-78.27-80.52S867.64,106.22,910.35,106.22Zm0,126.62c28.22,0,39.89-23.14,39.89-46.28s-12.42-46.28-39.89-46.28c-27.28,0-40.07,23.14-40.07,46.28S881.38,232.84,910.35,232.84Z"/><path class="cls-1" d="M1071,109h109.12v31.05h-36.88V264.26h-35.37V140.09H1071Z"/><path class="cls-1" d="M1404.21,172.26h-.94l-31.8,91.06H1350.4l-31.8-91.06h-.94l-7.33,92H1275L1288.88,109h37.62l34.43,89.56L1395.37,109H1433l13.93,155.22h-35.38Z"/><path class="cls-1" d="M1594.41,264.26H1559V109h35.37Z"/><path class="cls-1" d="M1754,233.22h53.43v31h-88.8V109H1754Z"/><path class="cls-1" d="M1924.21,233.22h53.43v31h-88.8V109h35.37Z"/><path class="cls-2" d="M344.1,175.3c-.13-6.18-2-15.05-3.3-20.31-.82-3.26.95-1.81,2.82,3.71-1.81-8.4-4.69-17.4-5.32-17.4s-.29,1.3-.41,1.84c-.48-1.17-1.15-4-1.94-6-1-2.44-2-3.86-1.3-1.65,1.37,4,6.66,25.32,7.23,29.09-.57-2-1.21-4.34-1.65-5.93a242.44,242.44,0,0,0-21-51.1c.66.57,1,.82,1.39,1.2.09-.92.16-1.65.28-2.82,1.78,2.57,3.33,4.76,4.85,7-3.13-8.39-8.71-15.46-13.31-22.75-.19.32-.34.57-.6,1C306.58,83.77,299.48,77.65,296.6,69c-.13.38-.22.6-.32.89-.38-4.28-5.95-1.78-5.38-6.18,3.23,1.68,8.62,6.08,11.21,8.46s3.71,2.38,4.63,2.47-.92-1.39-.38-1.87c.7-.6,7.6,8.56,11.12,12.52-9.73-21.74-35.64-29.66-53.86-43.57-47.78-31-112-39-163.17-9.31-2.28,1.33-5.39,3.29-6.72,4.18s1.58-.07,1.71.06c-1.39,1-2.63,1.81-4.12,2.85s1.68.29,1,.8-3.58,4.43.22,1.93,8.11-5.36,10.4-5.36-9.1,6.4-13.28,9.13c-6.56,4.28-12.39,8.08-16.13,10.71-3.13,2.22-6.37,4.46-7.06,4-1.24-.92,3.17-4.53,3.7-5.36.86-1.3-4.75,2.32-3.45.95a160.07,160.07,0,0,1,13-11.53c3.17-2.41,5.13-3.83,5.07-4.85s-3.26.64-6.68,2.51C53.27,56,44.68,84.78,33.47,108.61l3.1-.23c-2.66,5.68-6.05,10.71-6.56,16.86,1.27-.92,2-2.19,3.49-2.66.6,2-.54,3.83-1,5.73.15,0,.28.1.41.13.76-2,1.52-4.06,2.25-6,.63.06,1.14.09,1.77.16-2.09,15.17-3.71,30.22-7.82,45.08l.19-.19c-3.55,10.93,1.1,21.74-.29,33.37h-.41c-1-5.71-3-11.28-1.78-17.27-.19.25-.38.5-.85,1.08-.16-1.62-.35-3.14-.51-4.6-.12-1.11-1.58-1.11-1.49-.13.54,6.09-.88,12.08,1,18.25.25-.85.47-1.74.6-2.15,1.93,9.16,6.84,31.18,5.51,28.39s-2.12-6.72-3.2-10.08c1.36,11.95,5.64,23.23,10,34.35-.35,0-1.33-.79-2.09-2.57-.45-1.08-1.59-1-1.4-.38a83.77,83.77,0,0,0,3.93,8.49c-.6-1.9-1.26-4.18-1.07-4.5,2.69,3.17,5.57,9.41,7.38,12.74s8.2,14.7,4,8.75-13.28-18-17.62-28.23c-1.3-3-2.06-7.51-2.69-7.55s-.51,1.37-.6,1.87c-.41-.57-.48-3.35-1-3.16-.88.31,2.54,12.57,1.53,10.89s-2.86-9.34-3.27-11.62c.35,4.91,1.78,9.38,1.65,10.58-4.12-6.53-2.25-13.56-2.25-17.05a17.62,17.62,0,0,0,1.14,5.83c-.51-3.8.25-7.82.1-9s-1.78-.22-1.68,1.18c-.32-.73-.42-2-.83-1.9s-.38,1.42-.44,2.25c-.22-.32-.25-.89-.51-.7s-.09,3.52-.88,3c-.45-.26,0-3,0-5.48,0-2.25-.29-4.19-.73-4-.95.32-.16,1.46-.45,4.94-.25,3.17-3-1.42-2.75.67.09.76-.73,3.23-.1,6.11s-.13,7.23.6,6.44.45-1.27,1-1.68c.15.22.06.88.47.66s.32-1.14.54-1.93C32,304.79,98.45,337.59,162,357.07l-1.2.54c77.27,14.89,156.58-47,177.52-118.12.54-1.87,1.81-9.12,2.66-14.35-2.82,9.38-4.78,9.12-4.72,8.46.76-6.27,1.62-10.55,3.2-13.47,4.53-7.09,1.74-25.19.35-26.1-1.08-.7-1.49.88-1.58.88.12-1.42.5-6.14-.57-3.86-.83,1.68,2,43.37-12.17,61.21-.57-11.28,5.51-22.08,8.81-33l-.26-.09c-.85,1.36-1.68,2.76-2.59,4.28-.1-.45-.19-.76-.26-1.05-1.14.67-1,2.57-2.79,2.66.42-2.31.83-4.5,1.21-6.68C320.49,235,317.32,256.06,305,271.4c-2.13,2.63,1.68-6.47,3.89-12.58,2-5.39,1.62-7.8-2.09-1.05-4.34,7.92-12.39,17.62-19,23.77-23.44,21.73-50.63,41.25-84.09,42.42v.22h3c-23.76,2.76-51.36.6-73.41-9.6a1.45,1.45,0,0,1,.12-.22c3.11,1.11,9.7,4.59,9.45,2.95-.1-.7-8.43-3.27-17.18-7.35-11.94-5.61-25.38-13.15-26.26-13.88-1.56-1.27,1.58,2,1.45,2.09C84,286.51,72.31,267.75,63.34,248.74c-1.36-2.85-3.64-4.94-5-8.14-.95-2.28-1.43-6.53-1.17-6.91,1.08-1.77-1.55-3.55-1.36-.69a86.6,86.6,0,0,0,3,11.81c.5,1.43-1.18-1.48-1.81-3.2-4.24-11.37-4.62-13.4-5.54-17.48,0,11.56,8.61,29.87,9.95,33.07-1.84-1.26-4.5-4.91-5.74-8.62,1.24,4.38,2.54,8,2.44,9.45-6.27-11.19-11.25-35.33-12.77-35.33s0,3.83.16,5.64c-3.64-5.48-6-22.85-4.63-27.28,1-19.84,4.09-40.14,11.06-58.84a.18.18,0,0,1,0-.12c0-.13.1-.26.13-.38,6-15.88,14.7-30.58,27.25-42.75-.1-.06-.19-.15-.29-.22-2.21,2-4.4,3.9-6.62,5.83C75.07,96,84.35,91.56,87.77,84l-.44-.29C89.17,82,91,80.34,93.16,78.38c-3.74,1.71-5.58,5.64-9.79,5.89C94.14,72.07,110,61.65,121.93,54.58c-1.11.67-1,2.82,1.17,3.58,2,.7,3.55-3,6.18-4,16.35-6.53,34-5.73,50.15-2.63-17.36-6.21-39.6-4.31-44.42-3.17,5.23-2.6,12.9-2.28,15.85-2.44,50.21-2.59,97.93,30.29,127.05,70.21,1.61,2.22,5,7.51,6.27,11.41.54,1.65,3.55,6.94,4.6,6.18s-.64-5-2.76-7.51c-2.92-3.45-4.66-7.67-8.27-14.16,3.36,4,6,7.09,8.84,10.52-6.59-11.47-23.13-28.08-24.87-32.8,9.5,6.94,16.76,15.94,22.81,25.73,5.42,8.81,10.9,20.44,14.23,27.47a10.34,10.34,0,0,0,.79,1.55c-.29-1-4.94-11.88-5-11.88-2.82-8.93-7.76-17.39-11.91-26.07,2.69,2.31,2.34,2.34,3.14,1.61s-4.47-7.22-5.45-11.44c3.42,5.33,6.84,10.68,10.45,16.35-.82-2-1.49-3.74-2.18-5.45l.28-.12c4.28,5.29,8.52,10.58,12.77,15.87-3.93-8.17-10.46-14.86-14.35-22.78.25-.13.47-.22.69-.35,3.65,6,11.66,13.56,13.44,15.87s-3.77-7.38-1.46-4.72,5.86,7.73,6.62,8.84,1.36,1.14.38-.28-7.48-10.74-11.21-16.13l.38-.28c9.56,12.45,18.66,25.53,24,40.36-5.64-22.4-22-40.14-35.23-58.58,6.72,5.32,11.34,12.45,17,18.66a3.12,3.12,0,0,1,.35-.25c-.79-1.46-1.58-3-2.37-4.41,12.57,10.93,21.1,41.51,21.92,43.5s-.57-4.15-1.52-8.33.67-3,.63-.13,4.38,11.32,1.78,15.78c-.22-.35-.41-.69-.79-1.36,2.12,6.43,1.33,13.09,3.83,19,1.2,9.92.54,19.83,0,29.69l.32,0c.38-3,.79-6.09,1.17-9.1h.41v3.52c.57-5.42-.38-11.34,1.58-16.32.35,2.89.7,5.77,1.08,8.62a5.21,5.21,0,0,0,.67-.06c1.17-12.11-.13-24.15-1.37-36.19.19,0,.35,0,.51-.06.25,1.65.51,3.26.79,5.26.32-.76.48-1.17.7-1.68,1.46,3.87,2,8,4.53,11.28-.76-4.44.29-8.68.32-13.12,2,5.1,2.94,14.86,3.36,15.75s.44-.7.31-1c1.4,4.11,2.41,16.38,2.47,14.48a90.76,90.76,0,0,0-.41-11.95A53.75,53.75,0,0,1,344.1,175.3ZM300.91,289.71c-2.57,1.9-2.85,1.93.32-2s10.1-15,12.73-19.74-.47,5.83,1.94,1.49,4.05-6.37,6.84-16.79c.25,3.3-3.17,16.63-7.54,24.14s-12.8,16.38-16,20.06,5.83-8.3,9.13-12.39a42.42,42.42,0,0,0,5.92-9.38C310.92,279.76,303.44,287.81,300.91,289.71ZM65.18,265.47c4,11,20.76,27.79,28.83,32.07C80.74,291.83,69.67,284,67.82,280.35c-1.19-2.34.74-1.89,2.46.14a18.31,18.31,0,0,0,5.52,4.81C69.09,276.65,66.1,271,65.18,265.47ZM117.59,33.23c-4,1.24-7.54,2.34-2.92-.16,4.15-2.22,13.34-5.48,15-3.74S121.55,32,117.59,33.23ZM254.43,75.84c8.11,1.46,9.41,10.71,12.14,13.28C261.5,84.43,256.39,79.23,254.43,75.84ZM279.21,88a8.53,8.53,0,0,1-2.35-3.77,48.3,48.3,0,0,1,4.69,5.17C282.06,90,280.85,89.41,279.21,88Z"/><path class="cls-2" d="M48.88,157.19q1.6-7.73,3.2-15.47l.43.09-3,15.65Z"/><path class="cls-2" d="M29.13,167.63A41,41,0,0,1,30,155.78l.42,0q-.61,5.91-1.24,11.81Z"/><path class="cls-2" d="M311.55,245.1c-1.2,2.23-2.67,6.44,0,4.16S312.77,242.83,311.55,245.1Z"/><path class="cls-2" d="M332.24,216.09c1-2.63.17-8,1.48-4.76S330.71,220.24,332.24,216.09Z"/><path class="cls-2" d="M16.94,222.28c.79,1.59.19-7.2-1.13-7.13s-1.93,1-1.33,3.56S16.3,221,16.94,222.28Z"/><path class="cls-2" d="M19.22,213.61c-.44-1.12-2-4.7-1.49-5.44s1.24-.45,1.74,1.19S19.71,214.89,19.22,213.61Z"/><path class="cls-2" d="M42.75,215.92c.17-.69.85-2.91.39-3.24s-.91-.07-1.06.91S42.56,216.7,42.75,215.92Z"/><path class="cls-2" d="M20.45,204.63c1.34-.09.37,1.58-.34,2.23C19.73,207.2,18.89,204.73,20.45,204.63Z"/><path class="cls-2" d="M24.55,220c1.06.27.34,1.25-.21,1.55C24.05,221.73,23.32,219.7,24.55,220Z"/><path class="cls-2" d="M302.48,142.14c-1-2.42,1.66,2.44,3.33,7,1,2.69,1.89,4.95,1.4,6.31C306.34,157.89,304.8,147.79,302.48,142.14Z"/><path class="cls-2" d="M304.8,128.56c1.76,3.24,2.89,4.95,3.58,4.66s1-1.79,0-3.07S303.81,126.73,304.8,128.56Z"/><path class="cls-2" d="M311.14,134c.42,1.29,2.72.7,1.75-.61S310.68,132.6,311.14,134Z"/><path class="cls-2" d="M333.83,204.9c.11,1.17-2.09,1.12-1.74-.17S333.71,203.62,333.83,204.9Z"/><path class="cls-2" d="M340.21,225c.51-1.76-1.1-2-1.24-.43C338.81,226.3,339.69,226.7,340.21,225Z"/><path class="cls-2" d="M329.5,215.48c.48,2.35-2.73,4.28-2.57,1.24S329,212.92,329.5,215.48Z"/><path class="cls-2" d="M84.67,37.07c1.43-.86,4.44-2.27,4-3.2s-2.93.89-4,1.91S83.25,37.92,84.67,37.07Z"/><path class="cls-2" d="M55.46,229.8c-.88-.46-.15-1.53.39-1.19S56.6,230.4,55.46,229.8Z"/><path class="cls-2" d="M292.57,135.39c-.8.18-.06,2.51.86,2.18S293.5,135.2,292.57,135.39Z"/><path class="cls-2" d="M304.8,123.36a.58.58,0,1,0,.4,1.08C306.13,124.11,305.72,123.16,304.8,123.36Z"/><path class="cls-2" d="M302.1,137.94c-.3-1.1,2.9,1.72,2.1,3.07S302.58,139.68,302.1,137.94Z"/><path class="cls-2" d="M118.13,60.39c-1.24.63-2.62,1.59-1.19,1.93a2.42,2.42,0,0,0,3-1.48C120.26,59.75,119.4,59.76,118.13,60.39Z"/></svg>